<svg width="64" height="64" viewBox="0 0 64 64" fill="none" xmlns="http://www.w3.org/2000/svg">
<rect width="64" height="64" rx="32" fill="black" fill-opacity="0.05"/>
<path d="M33.3334 17.3348V21.4144C34.9154 21.6099 36.3775 22.1343 37.7196 22.9875C39.0617 23.8408 40.1593 24.9384 41.0126 26.2805C41.8658 27.6226 42.3902 29.0847 42.5858 30.6668H46.6654V33.3332H42.5858C42.3902 34.9152 41.8658 36.3773 41.0126 37.7194C40.1593 39.0615 39.0617 40.1591 37.7196 41.0124C36.3775 41.8656 34.9154 42.39 33.3334 42.5856V46.6652H30.667V42.5856C29.0849 42.39 27.6228 41.8656 26.2807 41.0124C24.9386 40.1591 23.841 39.0615 22.9877 37.7194C22.1345 36.3773 21.6101 34.9152 21.4146 33.3332H17.335V30.6668H21.4146C21.6101 29.0847 22.1345 27.6226 22.9877 26.2805C23.841 24.9384 24.9386 23.8408 26.2807 22.9875C27.6228 22.1343 29.0849 21.6099 30.667 21.4144V17.3348H33.3334ZM32.0002 24.0008C30.5603 24.0008 29.2182 24.3652 27.9739 25.094C26.7651 25.805 25.8052 26.7649 25.0942 27.9737C24.3654 29.218 24.001 30.5601 24.001 32C24.001 33.4398 24.3654 34.7819 25.0942 36.0262C25.8052 37.235 26.7651 38.1949 27.9739 38.9059C29.2182 39.6348 30.5603 39.9992 32.0002 39.9992C33.44 39.9992 34.7821 39.6348 36.0264 38.9059C37.2352 38.1949 38.1951 37.235 38.9061 36.0262C39.635 34.7819 39.9994 33.4398 39.9994 32C39.9994 30.5601 39.635 29.218 38.9061 27.9737C38.1951 26.7649 37.2352 25.805 36.0264 25.094C34.7821 24.3652 33.44 24.0008 32.0002 24.0008ZM32.0002 29.3336C32.4801 29.3336 32.9245 29.4535 33.3334 29.6935C33.7422 29.9335 34.0666 30.2579 34.3066 30.6668C34.5466 31.0756 34.6666 31.52 34.6666 32C34.6666 32.4799 34.5466 32.9243 34.3066 33.3332C34.0666 33.742 33.7422 34.0664 33.3334 34.3064C32.9245 34.5464 32.4801 34.6664 32.0002 34.6664C31.5202 34.6664 31.0758 34.5464 30.667 34.3064C30.2581 34.0664 29.9337 33.742 29.6937 33.3332C29.4537 32.9243 29.3338 32.4799 29.3338 32C29.3338 31.52 29.4537 31.0756 29.6937 30.6668C29.9337 30.2579 30.2581 29.9335 30.667 29.6935C31.0758 29.4535 31.5202 29.3336 32.0002 29.3336Z" fill="black"/>
</svg>
