<svg width="64" height="64" viewBox="0 0 64 64" fill="none" xmlns="http://www.w3.org/2000/svg">
<rect width="64" height="64" rx="32" fill="black" fill-opacity="0.05"/>
<path d="M30.4798 18.668C32.258 18.668 33.9294 19.0858 35.4942 19.9212C37.0056 20.7212 38.2547 21.8277 39.2416 23.2409C40.2285 24.6541 40.8375 26.2228 41.0686 27.9471L44.0559 32.6666C44.1804 32.8444 44.2159 33.0266 44.1626 33.2132C44.1092 33.3999 43.9759 33.5465 43.7625 33.6532L41.1486 34.7731V38.666C41.1486 39.146 41.0286 39.5904 40.7886 39.9992C40.5485 40.4081 40.224 40.7325 39.815 40.9725C39.4061 41.2124 38.9615 41.3324 38.4814 41.3324H35.8142V45.332H23.8118V40.3992C23.8118 38.8527 23.2606 37.3862 22.1582 35.9996C21.4114 35.0753 20.8424 34.0532 20.4512 32.9333C20.0244 31.7778 19.811 30.578 19.811 29.3336C19.811 27.396 20.3 25.6007 21.278 23.9475C22.2204 22.3477 23.4918 21.0767 25.0921 20.1346C26.7635 19.1569 28.5595 18.668 30.4798 18.668ZM30.4798 21.3344C29.0395 21.3344 27.6971 21.6988 26.4524 22.4277C25.2432 23.1387 24.283 24.0986 23.5718 25.3074C22.8428 26.5517 22.4782 27.8938 22.4782 29.3336C22.4782 30.258 22.6294 31.1468 22.9317 32C23.2339 32.8533 23.6696 33.6265 24.2386 34.3198C25.7322 36.2041 26.479 38.2305 26.479 40.3992V42.6656H33.147V38.666H38.4814V33.0133L40.5619 32.1067L38.5081 28.8803L38.4281 28.2937C38.2503 26.9961 37.788 25.814 37.0411 24.7474C36.2943 23.6809 35.3475 22.8454 34.2006 22.241C33.0537 21.6366 31.8134 21.3344 30.4798 21.3344ZM29.7864 26.3473L30.4798 27.0672L31.2 26.3473C31.6445 25.9029 32.1913 25.6807 32.8403 25.6807C33.4893 25.6807 34.0405 25.9073 34.494 26.3606C34.9474 26.8139 35.1741 27.3605 35.1741 28.0004C35.1741 28.6404 34.9518 29.1914 34.5073 29.6536L30.4798 33.6532L26.479 29.6536C26.0167 29.1914 25.7856 28.6404 25.7856 28.0004C25.7856 27.3605 26.0167 26.8139 26.479 26.3606C26.9413 25.9073 27.4926 25.6807 28.1327 25.6807C28.7728 25.6807 29.324 25.9029 29.7864 26.3473Z" fill="black"/>
</svg>
