<svg width="64" height="64" viewBox="0 0 64 64" fill="none" xmlns="http://www.w3.org/2000/svg">
<rect width="64" height="64" rx="32" fill="black" fill-opacity="0.05"/>
<path d="M31.9999 20.0012C34.3464 20.0012 36.5684 20.5345 38.6659 21.601C40.6746 22.632 42.3678 24.0586 43.7454 25.8806C45.1231 27.7026 46.0163 29.7424 46.4252 32C46.0163 34.2575 45.1231 36.2973 43.7454 38.1194C42.3678 39.9414 40.6746 41.3679 38.6659 42.3989C36.5684 43.4655 34.3464 43.9988 31.9999 43.9988C29.6535 43.9988 27.4315 43.4655 25.3339 42.3989C23.3252 41.3679 21.6321 39.9414 20.2544 38.1194C18.8768 36.2973 17.9836 34.2575 17.5747 32C17.9836 29.7424 18.8768 27.7026 20.2544 25.8806C21.6321 24.0586 23.3252 22.632 25.3339 21.601C27.4315 20.5345 29.6535 20.0012 31.9999 20.0012ZM31.9999 41.3324C33.8486 41.3324 35.6085 40.9235 37.2794 40.1058C38.897 39.3237 40.2702 38.2216 41.399 36.7995C42.5278 35.3774 43.2966 33.7776 43.7054 32C43.2966 30.2224 42.5278 28.6225 41.399 27.2005C40.2702 25.7784 38.897 24.6763 37.2794 23.8941C35.6085 23.0764 33.8486 22.6676 31.9999 22.6676C30.1512 22.6676 28.3914 23.0764 26.7205 23.8941C25.1028 24.6763 23.7296 25.7784 22.6009 27.2005C21.4721 28.6225 20.7033 30.2224 20.2944 32C20.7033 33.7776 21.4721 35.3774 22.6009 36.7995C23.7296 38.2216 25.1028 39.3237 26.7205 40.1058C28.3914 40.9235 30.1512 41.3324 31.9999 41.3324ZM31.9999 37.9994C30.9156 37.9994 29.9157 37.7283 29.0002 37.1861C28.0848 36.644 27.356 35.9151 26.8138 34.9997C26.2716 34.0842 26.0005 33.0843 26.0005 32C26.0005 30.9156 26.2716 29.9157 26.8138 29.0003C27.356 28.0848 28.0848 27.356 29.0002 26.8138C29.9157 26.2717 30.9156 26.0006 31.9999 26.0006C33.0843 26.0006 34.0842 26.2717 34.9996 26.8138C35.9151 27.356 36.6439 28.0848 37.1861 29.0003C37.7282 29.9157 37.9993 30.9156 37.9993 32C37.9993 33.0843 37.7282 34.0842 37.1861 34.9997C36.6439 35.9151 35.9151 36.644 34.9996 37.1861C34.0842 37.7283 33.0843 37.9994 31.9999 37.9994ZM31.9999 35.333C32.6043 35.333 33.1598 35.1819 33.6664 34.8797C34.173 34.5775 34.5775 34.1731 34.8796 33.6665C35.1818 33.1599 35.3329 32.6044 35.3329 32C35.3329 31.3956 35.1818 30.8401 34.8796 30.3335C34.5775 29.8269 34.173 29.4225 33.6664 29.1203C33.1598 28.8181 32.6043 28.667 31.9999 28.667C31.3955 28.667 30.84 28.8181 30.3334 29.1203C29.8268 29.4225 29.4224 29.8269 29.1202 30.3335C28.818 30.8401 28.6669 31.3956 28.6669 32C28.6669 32.6044 28.818 33.1599 29.1202 33.6665C29.4224 34.1731 29.8268 34.5775 30.3334 34.8797C30.84 35.1819 31.3955 35.333 31.9999 35.333Z" fill="black"/>
</svg>
